<?xml version="1.0" standalone="no"?>
<!DOCTYPE svg PUBLIC "-//W3C//DTD SVG 20010904//EN"
 "http://www.w3.org/TR/2001/REC-SVG-20010904/DTD/svg10.dtd">
<svg version="1.0" xmlns="http://www.w3.org/2000/svg"
 width="500.000000pt" height="140.000000pt" viewBox="0 0 500.000000 140.000000"
 preserveAspectRatio="xMidYMid meet">

<g transform="translate(0.000000,140.000000) scale(0.100000,-0.100000)"
fill="#000000" stroke="none">
<path d="M345 1370 c-11 -4 -38 -13 -60 -19 -92 -24 -196 -121 -228 -213 -37
-106 -38 -120 -34 -448 4 -366 7 -388 70 -483 54 -79 129 -132 217 -151 36 -8
90 -20 120 -26 81 -18 352 -24 445 -11 242 34 314 60 385 137 68 74 88 135
121 369 13 90 7 362 -9 440 -6 28 -16 76 -22 107 -28 141 -129 250 -270 290
-53 14 -703 22 -735 8z m670 -590 c-1 -161 -3 -179 -24 -228 -110 -247 -500
-238 -602 13 -7 18 -14 102 -17 208 l-4 177 70 0 71 0 3 -169 c3 -194 9 -208
88 -248 89 -46 211 -18 255 57 17 30 20 56 23 190 2 85 5 161 7 168 3 9 23 12
67 10 l63 -3 0 -175z m-255 25 c0 -132 -2 -147 -20 -165 -25 -25 -61 -26 -91
-1 -23 18 -24 27 -28 150 -1 72 0 138 3 146 4 11 22 15 71 15 l65 0 0 -145z"/>
<path d="M1630 925 l0 -265 55 0 55 0 1 178 c1 153 2 173 13 147 7 -16 39 -97
71 -178 l58 -148 39 3 40 3 66 173 67 172 3 -175 2 -175 55 0 55 0 0 265 0
266 -71 -3 -72 -3 -72 -184 -72 -185 -28 75 c-15 41 -47 124 -70 184 l-42 110
-77 3 -76 3 0 -266z"/>
<path d="M4230 1003 c0 -104 5 -205 10 -225 26 -91 102 -134 225 -126 89 6
141 35 171 95 16 33 19 66 22 241 l3 202 -55 0 -55 0 -3 -194 c-3 -179 -5
-197 -24 -223 -30 -40 -82 -52 -125 -27 -50 29 -58 64 -58 267 l-1 177 -55 0
-55 0 0 -187z"/>
<path d="M4770 925 l0 -265 55 0 55 0 0 265 0 265 -55 0 -55 0 0 -265z"/>
<path d="M2375 1035 c-22 -8 -41 -15 -42 -15 -7 0 -2 -80 4 -80 4 0 31 10 59
21 61 26 99 20 116 -16 6 -14 9 -28 6 -31 -3 -3 -37 -10 -74 -16 -38 -5 -81
-17 -96 -24 -62 -32 -78 -131 -30 -185 24 -27 37 -33 84 -37 38 -3 64 1 86 12
18 9 32 12 32 6 0 -5 22 -10 50 -10 l50 0 0 146 c0 167 -10 202 -65 228 -41
20 -127 20 -180 1z m127 -274 c-28 -38 -66 -49 -92 -26 -43 39 -17 83 55 93
48 7 50 6 53 -17 2 -13 -5 -36 -16 -50z"/>
<path d="M3175 1031 c-49 -22 -73 -48 -91 -98 -28 -80 -8 -190 42 -235 55 -49
167 -62 240 -29 76 35 110 103 101 207 -6 79 -34 126 -91 153 -54 27 -145 28
-201 2z m150 -85 c45 -45 45 -147 0 -192 -32 -32 -68 -30 -107 5 -31 27 -33
34 -33 91 0 57 2 64 33 91 39 35 75 37 107 5z"/>
<path d="M3683 1031 c-27 -17 -33 -18 -33 -6 0 11 -12 15 -50 15 l-50 0 0
-190 0 -190 49 0 49 0 4 131 c3 129 3 131 31 155 34 29 57 30 88 5 23 -18 24
-26 27 -155 l4 -136 49 0 49 0 0 140 c0 199 -21 241 -128 247 -45 3 -64 0 -89
-16z"/>
<path d="M2693 1027 c3 -8 29 -52 57 -98 l52 -82 -61 -89 c-34 -48 -61 -91
-61 -93 0 -3 26 -5 59 -5 l58 0 32 60 c18 33 34 60 36 60 2 0 18 -27 37 -60
l33 -60 57 0 c32 0 58 2 58 5 0 3 -27 45 -59 94 l-60 88 60 89 c32 49 59 92
59 97 0 4 -24 7 -54 7 l-55 0 -33 -60 c-18 -33 -35 -60 -38 -60 -3 0 -18 26
-35 58 l-30 57 -59 3 c-48 3 -58 0 -53 -11z"/>
<path d="M1600 330 l0 -130 25 0 c24 0 25 3 25 55 l0 55 45 0 c38 0 45 3 45
20 0 17 -7 20 -45 20 -45 0 -45 0 -45 35 l0 35 50 0 c43 0 50 3 50 20 0 18 -7
20 -75 20 l-75 0 0 -130z"/>
<path d="M2400 365 c0 -137 18 -164 108 -165 24 0 42 9 63 29 28 29 29 32 29
130 l0 101 -25 0 c-25 0 -25 0 -25 -93 0 -78 -3 -97 -18 -110 -51 -47 -82 -3
-82 115 0 87 0 88 -25 88 -25 0 -25 0 -25 -95z"/>
<path d="M2650 330 l0 -130 25 0 25 0 0 130 0 130 -25 0 -25 0 0 -130z"/>
<path d="M2900 438 c-42 -29 -60 -61 -60 -111 0 -78 50 -127 129 -127 55 0 71
8 71 37 0 20 -4 24 -17 18 -39 -16 -54 -17 -82 -6 -57 24 -67 96 -20 143 27
28 34 30 75 24 43 -5 45 -5 42 17 -3 19 -10 22 -53 25 -40 2 -58 -2 -85 -20z"/>
<path d="M4683 433 c-7 -2 -13 -13 -13 -24 0 -10 -7 -19 -15 -19 -8 0 -15 -9
-15 -20 0 -11 7 -20 15 -20 12 0 15 -14 15 -63 0 -72 10 -87 57 -87 26 0 33 4
33 19 0 10 -9 21 -20 24 -17 4 -20 14 -20 56 0 44 3 51 20 51 13 0 20 7 20 20
0 13 -7 20 -20 20 -15 0 -20 7 -20 25 0 24 -11 29 -37 18z"/>
<path d="M1780 294 c0 -94 0 -94 25 -94 23 0 25 3 25 51 0 60 13 89 40 89 14
0 20 7 20 24 0 22 -4 23 -55 24 l-55 0 0 -94z"/>
<path d="M1919 361 c-33 -34 -40 -91 -14 -128 18 -26 70 -38 120 -29 29 6 35
11 35 33 0 20 -3 24 -17 18 -40 -17 -70 -17 -88 2 -18 17 -17 18 48 21 l67 3
0 30 c0 74 -95 106 -151 50z m91 -26 c11 -13 6 -15 -31 -15 -41 1 -43 2 -25
15 25 19 40 19 56 0z"/>
<path d="M2109 361 c-33 -34 -40 -91 -14 -128 18 -26 70 -38 120 -29 29 6 35
11 35 33 0 20 -3 24 -17 18 -40 -17 -70 -17 -88 2 -18 17 -17 18 48 21 l67 3
0 30 c0 74 -95 106 -151 50z m91 -26 c11 -13 6 -15 -31 -15 -41 1 -43 2 -25
15 25 19 40 19 56 0z"/>
<path d="M3114 378 c-59 -28 -57 -140 3 -167 76 -35 143 9 143 95 0 68 -77
106 -146 72z m80 -44 c30 -30 10 -94 -29 -94 -21 0 -45 29 -45 55 0 26 24 55
45 55 7 0 21 -7 29 -16z"/>
<path d="M3300 294 c0 -94 0 -94 25 -94 24 0 25 2 25 64 0 71 17 99 45 76 10
-9 15 -32 15 -76 0 -62 1 -64 25 -64 24 0 25 3 25 56 0 60 13 94 34 94 20 0
26 -23 26 -91 0 -56 1 -59 25 -59 24 0 25 2 25 73 0 49 -5 80 -16 95 -16 24
-53 29 -85 11 -13 -7 -24 -7 -32 -1 -7 6 -40 10 -74 10 l-63 0 0 -94z"/>
<path d="M3620 255 l0 -135 25 0 c23 0 25 4 25 44 l0 44 38 -5 c55 -7 83 19
89 83 4 40 1 54 -17 77 -23 29 -75 38 -98 15 -9 -9 -12 -9 -12 0 0 7 -11 12
-25 12 l-25 0 0 -135z m121 71 c15 -32 4 -73 -22 -81 -26 -9 -49 11 -49 42 0
59 50 86 71 39z"/>
<path d="M3854 378 c-59 -28 -57 -140 3 -167 76 -35 143 9 143 95 0 68 -77
106 -146 72z m80 -44 c30 -30 10 -94 -29 -94 -21 0 -45 29 -45 55 0 26 24 55
45 55 7 0 21 -7 29 -16z"/>
<path d="M4050 294 c0 -93 0 -94 25 -94 23 0 24 3 27 66 2 51 7 70 21 78 26
16 37 -7 37 -81 0 -60 1 -63 25 -63 24 0 25 2 25 73 0 102 -11 116 -95 115
l-65 0 0 -94z"/>
<path d="M4269 361 c-33 -34 -40 -91 -14 -128 18 -26 70 -38 120 -29 29 6 35
11 35 33 0 20 -3 24 -17 18 -40 -17 -70 -17 -88 2 -18 17 -17 18 48 21 l67 3
0 30 c0 74 -95 106 -151 50z m91 -26 c11 -13 6 -15 -31 -15 -41 1 -43 2 -25
15 25 19 40 19 56 0z"/>
<path d="M4450 294 c0 -93 0 -94 25 -94 23 0 24 3 27 66 2 51 7 70 21 78 26
16 37 -7 37 -81 0 -60 1 -63 25 -63 24 0 25 2 25 73 0 102 -11 116 -95 115
l-65 0 0 -94z"/>
<path d="M4793 375 c-43 -30 -25 -75 40 -103 15 -7 25 -17 22 -22 -8 -13 -52
-13 -60 0 -12 20 -26 9 -23 -17 3 -25 7 -28 46 -31 106 -8 126 75 29 116 -38
16 -24 36 20 29 31 -5 34 -4 31 16 -2 18 -10 23 -43 25 -25 2 -49 -3 -62 -13z"/>
</g>
</svg>
