<?xml version="1.0" encoding="UTF-8"?>
<svg version="1.1" xmlns="http://www.w3.org/2000/svg" width="1280" height="200">
<path d="M0 0 C0.98102692 -0.00860046 1.96205383 -0.01720093 2.97280884 -0.02606201 C4.04296234 -0.03032196 5.11311584 -0.03458191 6.21569824 -0.03897095 C7.34792816 -0.04714844 8.48015808 -0.05532593 9.646698 -0.06375122 C13.39820836 -0.08858558 17.14968085 -0.10511906 20.90124512 -0.11953735 C22.82603951 -0.12752287 22.82603951 -0.12752287 24.78971863 -0.13566971 C30.18735399 -0.15689735 35.5849771 -0.17602519 40.98264313 -0.1872921 C48.69080118 -0.20349258 56.39845212 -0.23657897 64.10641909 -0.29369295 C70.1975447 -0.33726923 76.2884736 -0.35305817 82.37974548 -0.35942459 C84.95999251 -0.36612122 87.54023262 -0.38130152 90.12037659 -0.4053154 C93.74368207 -0.43710595 97.36572612 -0.43698163 100.98913574 -0.42959595 C102.0430954 -0.44600128 103.09705505 -0.46240662 104.18295288 -0.47930908 C112.03937661 -0.41418906 118.08879578 1.72153466 125.11999512 5.15390015 C125.11999512 5.81390015 125.11999512 6.47390015 125.11999512 7.15390015 C125.73874512 7.23640015 126.35749512 7.31890015 126.99499512 7.40390015 C129.11999512 8.15390015 129.11999512 8.15390015 130.36999512 10.21640015 C130.61749512 10.85577515 130.86499512 11.49515015 131.11999512 12.15390015 C132.10999512 12.15390015 133.09999512 12.15390015 134.11999512 12.15390015 C134.11999512 12.81390015 134.11999512 13.47390015 134.11999512 14.15390015 C134.77999512 14.15390015 135.43999512 14.15390015 136.11999512 14.15390015 C136.11999512 14.81390015 136.11999512 15.47390015 136.11999512 16.15390015 C136.77999512 16.15390015 137.43999512 16.15390015 138.11999512 16.15390015 C138.11999512 16.81390015 138.11999512 17.47390015 138.11999512 18.15390015 C138.77999512 18.15390015 139.43999512 18.15390015 140.11999512 18.15390015 C140.11999512 19.14390015 140.11999512 20.13390015 140.11999512 21.15390015 C140.77999512 21.15390015 141.43999512 21.15390015 142.11999512 21.15390015 C143.40905762 22.76327515 143.40905762 22.76327515 144.74499512 24.90390015 C145.19101074 25.5999939 145.63702637 26.29608765 146.09655762 27.01327515 C147.11999512 29.15390015 147.11999512 29.15390015 147.11999512 33.15390015 C147.77999512 33.15390015 148.43999512 33.15390015 149.11999512 33.15390015 C149.44999512 35.13390015 149.77999512 37.11390015 150.11999512 39.15390015 C150.44999512 39.15390015 150.77999512 39.15390015 151.11999512 39.15390015 C151.3478597 41.2046814 151.57572428 43.25546265 151.80358887 45.3062439 C151.93886126 47.16530243 151.93886126 47.16530243 153.11999512 48.15390015 C153.22060782 51.13151384 153.25614405 54.08597182 153.24938965 57.0640564 C153.25201813 58.46638016 153.25201813 58.46638016 153.25469971 59.89703369 C153.25911986 63.00350777 153.25617966 66.10992544 153.25280762 69.21640015 C153.25348061 71.36491914 153.25445059 73.51343806 153.25570679 75.66195679 C153.25718398 80.17132286 153.25502851 84.68066917 153.25036621 89.19003296 C153.24466892 94.98438592 153.24794781 100.77869256 153.25393867 106.57304382 C153.25754371 111.01152905 153.25640597 115.45000321 153.25381088 119.88848877 C153.25314145 122.02563482 153.25397059 124.16278186 153.25629044 126.29992676 C153.25881601 129.28122641 153.25497771 132.26244995 153.24938965 135.2437439 C153.25141388 136.13624847 153.25343811 137.02875305 153.25552368 137.94830322 C153.23425744 144.03963782 153.23425744 144.03963782 152.11999512 145.15390015 C151.8892443 146.50137099 151.70846449 147.8576758 151.55749512 149.21640015 C151.41312012 150.51577515 151.26874512 151.81515015 151.11999512 153.15390015 C150.78999512 153.15390015 150.45999512 153.15390015 150.11999512 153.15390015 C149.87249512 154.14390015 149.62499512 155.13390015 149.36999512 156.15390015 C148.33924677 159.80230438 146.79374595 163.01474764 145.02233887 166.35702515 C143.9894482 168.30697208 143.9894482 168.30697208 143.11999512 171.15390015 C141.68249512 172.84140015 141.68249512 172.84140015 140.11999512 174.15390015 C139.45999512 174.15390015 138.79999512 174.15390015 138.11999512 174.15390015 C137.78999512 175.47390015 137.45999512 176.79390015 137.11999512 178.15390015 C136.12999512 178.15390015 135.13999512 178.15390015 134.11999512 178.15390015 C134.11999512 178.81390015 134.11999512 179.47390015 134.11999512 180.15390015 C133.45999512 180.15390015 132.79999512 180.15390015 132.11999512 180.15390015 C132.11999512 180.81390015 132.11999512 181.47390015 132.11999512 182.15390015 C131.12999512 182.15390015 130.13999512 182.15390015 129.11999512 182.15390015 C129.11999512 182.81390015 129.11999512 183.47390015 129.11999512 184.15390015 C126.55852942 186.45038664 125.6403194 187.15390015 122.11999512 187.15390015 C122.11999512 187.81390015 122.11999512 188.47390015 122.11999512 189.15390015 C120.46999512 189.15390015 118.81999512 189.15390015 117.11999512 189.15390015 C117.11999512 189.81390015 117.11999512 190.47390015 117.11999512 191.15390015 C115.23280762 191.58702515 115.23280762 191.58702515 113.30749512 192.02890015 C110.26605522 192.72693553 108.81329634 193.358366 106.11999512 195.15390015 C104.13781834 195.40558243 104.13781834 195.40558243 101.83790588 195.40786743 C100.52778282 195.4163269 100.52778282 195.4163269 99.19119263 195.42495728 C97.75808243 195.41888458 97.75808243 195.41888458 96.29602051 195.41268921 C94.78344414 195.41794617 94.78344414 195.41794617 93.24031067 195.42330933 C89.89935467 195.4321282 86.55860961 195.42627642 83.21765137 195.41952515 C80.89981546 195.42087186 78.58197983 195.42281244 76.2641449 195.42532349 C71.40267247 195.42827505 66.54127347 195.42397641 61.67980957 195.41464233 C55.44409107 195.40325419 49.20854484 195.40980311 42.97283268 195.42178726 C38.18508097 195.42901036 33.39737017 195.42671573 28.60961723 195.42153168 C26.31027646 195.4201961 24.01093199 195.42183968 21.71159554 195.42649078 C18.49875155 195.43156262 15.28618738 195.423836 12.07336426 195.41268921 C10.64329041 195.4187619 10.64329041 195.4187619 9.18432617 195.42495728 C8.30809097 195.41931763 7.43185577 195.41367798 6.52906799 195.40786743 C5.76971986 195.40711338 5.01037172 195.40635933 4.22801304 195.40558243 C1.81843295 195.11789578 0.22576166 194.33252594 -1.88000488 193.15390015 C-3.20528973 192.61291473 -4.53883855 192.09171806 -5.88000488 191.59140015 C-6.54000488 191.34261108 -7.20000488 191.09382202 -7.88000488 190.8374939 C-9.86257569 190.15985739 -11.84097742 189.63179721 -13.88000488 189.15390015 C-13.88000488 188.49390015 -13.88000488 187.83390015 -13.88000488 187.15390015 C-15.20000488 186.82390015 -16.52000488 186.49390015 -17.88000488 186.15390015 C-17.88000488 185.49390015 -17.88000488 184.83390015 -17.88000488 184.15390015 C-18.87000488 184.15390015 -19.86000488 184.15390015 -20.88000488 184.15390015 C-20.88000488 183.49390015 -20.88000488 182.83390015 -20.88000488 182.15390015 C-21.87000488 182.15390015 -22.86000488 182.15390015 -23.88000488 182.15390015 C-23.88000488 181.49390015 -23.88000488 180.83390015 -23.88000488 180.15390015 C-24.54000488 180.15390015 -25.20000488 180.15390015 -25.88000488 180.15390015 C-25.88000488 179.49390015 -25.88000488 178.83390015 -25.88000488 178.15390015 C-26.54000488 178.15390015 -27.20000488 178.15390015 -27.88000488 178.15390015 C-27.88000488 177.49390015 -27.88000488 176.83390015 -27.88000488 176.15390015 C-28.54000488 176.15390015 -29.20000488 176.15390015 -29.88000488 176.15390015 C-29.88000488 175.49390015 -29.88000488 174.83390015 -29.88000488 174.15390015 C-30.54000488 174.15390015 -31.20000488 174.15390015 -31.88000488 174.15390015 C-33.16906738 172.7281189 -33.16906738 172.7281189 -34.50500488 170.84140015 C-34.95102051 170.22651733 -35.39703613 169.61163452 -35.85656738 168.9781189 C-36.88000488 167.15390015 -36.88000488 167.15390015 -36.88000488 164.15390015 C-37.54000488 164.15390015 -38.20000488 164.15390015 -38.88000488 164.15390015 C-39.31312988 163.04015015 -39.31312988 163.04015015 -39.75500488 161.90390015 C-40.77087275 159.25458626 -40.77087275 159.25458626 -41.93528557 157.2920723 C-43.05327458 154.76174088 -43.1263888 152.95434146 -43.12051392 150.19314575 C-43.12326324 149.19477692 -43.12601257 148.19640808 -43.12884521 147.16778564 C-43.12165466 146.0787796 -43.11446411 144.98977356 -43.10705566 143.86776733 C-43.10734772 142.7162619 -43.10763977 141.56475647 -43.10794067 140.37835693 C-43.10654642 136.56908657 -43.09098042 132.76001137 -43.07531738 128.95077515 C-43.0715876 126.310904 -43.06874047 123.67103147 -43.06674194 121.03115845 C-43.0605278 114.79096455 -43.0441179 108.55084079 -43.02404296 102.31067777 C-43.00168189 95.20553056 -42.99069001 88.10037999 -42.98065209 80.99520636 C-42.95975161 66.38140145 -42.92457691 51.76765178 -42.88000488 37.15390015 C-42.22000488 37.15390015 -41.56000488 37.15390015 -40.88000488 37.15390015 C-40.66344238 36.04015015 -40.66344238 36.04015015 -40.44250488 34.90390015 C-39.97812996 32.63362275 -39.4613692 30.39630535 -38.88000488 28.15390015 C-38.22000488 28.15390015 -37.56000488 28.15390015 -36.88000488 28.15390015 C-36.77559082 27.5815564 -36.67117676 27.00921265 -36.56359863 26.41952515 C-35.76840989 23.78404247 -34.60098998 22.09358707 -32.94250488 19.90390015 C-32.41785645 19.1974939 -31.89320801 18.49108765 -31.35266113 17.76327515 C-30.86668457 17.2321814 -30.38070801 16.70108765 -29.88000488 16.15390015 C-29.22000488 16.15390015 -28.56000488 16.15390015 -27.88000488 16.15390015 C-27.88000488 15.49390015 -27.88000488 14.83390015 -27.88000488 14.15390015 C-27.22000488 14.15390015 -26.56000488 14.15390015 -25.88000488 14.15390015 C-25.88000488 13.49390015 -25.88000488 12.83390015 -25.88000488 12.15390015 C-25.22000488 12.15390015 -24.56000488 12.15390015 -23.88000488 12.15390015 C-23.55000488 11.16390015 -23.22000488 10.17390015 -22.88000488 9.15390015 C-19.88000488 7.15390015 -19.88000488 7.15390015 -16.88000488 7.15390015 C-16.88000488 6.49390015 -16.88000488 5.83390015 -16.88000488 5.15390015 C-15.89000488 5.15390015 -14.90000488 5.15390015 -13.88000488 5.15390015 C-13.88000488 4.49390015 -13.88000488 3.83390015 -13.88000488 3.15390015 C-12.23000488 3.15390015 -10.58000488 3.15390015 -8.88000488 3.15390015 C-8.88000488 2.49390015 -8.88000488 1.83390015 -8.88000488 1.15390015 C-5.85495926 0.27872263 -3.14476931 0.0205942 0 0 Z " fill="#7A52D1" transform="translate(51.8800048828125,2.846099853515625)"/>
<path d="M0 0 C15.84 0 31.68 0 48 0 C50 2 50 2 50 6 C50.66 6 51.32 6 52 6 C52 7.32 52 8.64 52 10 C52.66 10 53.32 10 54 10 C54 10.66 54 11.32 54 12 C54.99 12.33 55.98 12.66 57 13 C56.67 14.32 56.34 15.64 56 17 C56.99 17 57.98 17 59 17 C59.268125 17.94875 59.53625 18.8975 59.8125 19.875 C60.74986588 23.25267273 60.74986588 23.25267273 64 25 C64.6875 28.125 64.6875 28.125 65 31 C65.99 31 66.98 31 68 31 C68 32.32 68 33.64 68 35 C68.66 35 69.32 35 70 35 C70 36.32 70 37.64 70 39 C70.66 39 71.32 39 72 39 C72 39.66 72 40.32 72 41 C72.66 41 73.32 41 74 41 C74 42.65 74 44.3 74 46 C75.485 46.495 75.485 46.495 77 47 C77 48.32 77 49.64 77 51 C77.66 51 78.32 51 79 51 C79 51.66 79 52.32 79 53 C79.66 53 80.32 53 81 53 C81 54.65 81 56.3 81 58 C81.66 58 82.32 58 83 58 C83 56.35 83 54.7 83 53 C83.66 53 84.32 53 85 53 C85 51.68 85 50.36 85 49 C85.99 48.01 85.99 48.01 87 47 C87.28875 46.38125 87.5775 45.7625 87.875 45.125 C89 43 89 43 91.0625 41 C93.11958047 38.87656209 93.41986758 37.80397338 94 35 C94.66 34.67 95.32 34.34 96 34 C96 33.01 96 32.02 96 31 C96.99 31 97.98 31 99 31 C99 30.34 99 29.68 99 29 C99.66 29 100.32 29 101 29 C101 27.35 101 25.7 101 24 C101.66 24 102.32 24 103 24 C103 22.35 103 20.7 103 19 C103.99 19 104.98 19 106 19 C106 18.34 106 17.68 106 17 C106.66 17 107.32 17 108 17 C108 15.35 108 13.7 108 12 C108.66 12 109.32 12 110 12 C110 11.34 110 10.68 110 10 C110.66 10 111.32 10 112 10 C112 8.68 112 7.36 112 6 C112.66 6 113.32 6 114 6 C114 4.68 114 3.36 114 2 C114.66 1.34 115.32 0.68 116 0 C131.84 0 147.68 0 164 0 C164 50.82 164 101.64 164 154 C149.15 154 134.3 154 119 154 C117.2917059 152.2917059 117.88028074 150.13995623 117.87557983 147.86213684 C117.88097275 146.75946724 117.88097275 146.75946724 117.88647461 145.63452148 C117.88632858 144.86384338 117.88618256 144.09316528 117.8860321 143.2991333 C117.8867314 140.73975861 117.89452455 138.1804558 117.90234375 135.62109375 C117.90420787 133.85132385 117.9056318 132.08155344 117.90663147 130.31178284 C117.91045712 125.64448634 117.9202878 120.97722077 117.93133545 116.30993652 C117.94154856 111.55102965 117.94612887 106.79211779 117.95117188 102.03320312 C117.96191003 92.68878847 117.97898701 83.3443968 118 74 C117.34 74 116.68 74 116 74 C115.67 75.98 115.34 77.96 115 80 C114.01 80 113.02 80 112 80 C112 80.66 112 81.32 112 82 C111.34 82 110.68 82 110 82 C110 83.65 110 85.3 110 87 C109.34 87 108.68 87 108 87 C108 87.66 108 88.32 108 89 C107.34 89 106.68 89 106 89 C105.67 90.65 105.34 92.3 105 94 C104.34 94 103.68 94 103 94 C103 95.32 103 96.64 103 98 C102.34 98 101.68 98 101 98 C101 98.66 101 99.32 101 100 C100.34 100 99.68 100 99 100 C99 101.65 99 103.3 99 105 C98.01 105 97.02 105 96 105 C95.67 106.98 95.34 108.96 95 111 C94.01 111 93.02 111 92 111 C91.62875 112.60875 91.62875 112.60875 91.25 114.25 C89.9766572 118.0700284 88.90407834 119.3769615 86 122 C85.505 123.485 85.505 123.485 85 125 C84.34 125 83.68 125 83 125 C83 125.66 83 126.32 83 127 C81.68 127 80.36 127 79 127 C79 125.68 79 124.36 79 123 C78.34 123 77.68 123 77 123 C77 121.35 77 119.7 77 118 C75.35 117.34 73.7 116.68 72 116 C72 114.35 72 112.7 72 111 C71.34 111 70.68 111 70 111 C70 110.34 70 109.68 70 109 C69.01 109 68.02 109 67 109 C66.67 107.02 66.34 105.04 66 103 C65.01 103 64.02 103 63 103 C63 101.35 63 99.7 63 98 C62.34 98 61.68 98 61 98 C61 97.34 61 96.68 61 96 C60.01 96 59.02 96 58 96 C58 94.35 58 92.7 58 91 C57.34 91 56.68 91 56 91 C56 90.34 56 89.68 56 89 C55.34 89 54.68 89 54 89 C54 87.35 54 85.7 54 84 C53.34 84 52.68 84 52 84 C52 83.34 52 82.68 52 82 C51.34 82 50.68 82 50 82 C50 80.68 50 79.36 50 78 C49.34 78 48.68 78 48 78 C48 77.34 48 76.68 48 76 C47.01 76 46.02 76 45 76 C44.67 74.35 44.34 72.7 44 71 C43.67 98.39 43.34 125.78 43 154 C28.81 154 14.62 154 0 154 C0 103.18 0 52.36 0 0 Z " fill="#7A52D1" transform="translate(276,29)"/>
<path d="M0 0 C15.18 0 30.36 0 46 0 C46 30.36 46 60.72 46 92 C46.99 92.495 46.99 92.495 48 93 C48.7013284 95.32315031 49.36485174 97.65789079 50 100 C50.37125 100.70125 50.7425 101.4025 51.125 102.125 C52.23518586 104.50396971 52.14403872 106.40730309 52 109 C52.66 109 53.32 109 54 109 C54 109.66 54 110.32 54 111 C55.65 111 57.3 111 59 111 C59 111.66 59 112.32 59 113 C60.32 113 61.64 113 63 113 C63 113.99 63 114.98 63 116 C69.6 116 76.2 116 83 116 C83.495 114.515 83.495 114.515 84 113 C85.32 113 86.64 113 88 113 C88 112.34 88 111.68 88 111 C88.66 111 89.32 111 90 111 C90 110.34 90 109.68 90 109 C90.66 109 91.32 109 92 109 C92 108.34 92 107.68 92 107 C92.66 107 93.32 107 94 107 C94 105.35 94 103.7 94 102 C94.66 102 95.32 102 96 102 C96 99.69 96 97.38 96 95 C96.66 94.67 97.32 94.34 98 94 C98 62.98 98 31.96 98 0 C113.18 0 128.36 0 144 0 C144 34.32 144 68.64 144 104 C143.01 104.33 142.02 104.66 141 105 C141 107.64 141 110.28 141 113 C140.34 113 139.68 113 139 113 C139 115.31 139 117.62 139 120 C138.34 120 137.68 120 137 120 C137 121.65 137 123.3 137 125 C136.34 125 135.68 125 135 125 C135 126.32 135 127.64 135 129 C134.01 129 133.02 129 132 129 C132 129.99 132 130.98 132 132 C131.02149805 133.02104551 130.02019573 134.0206121 129 135 C128.67 135.99 128.34 136.98 128 138 C127.01 138 126.02 138 125 138 C125 138.66 125 139.32 125 140 C123.68 140 122.36 140 121 140 C121 140.66 121 141.32 121 142 C120.34 142 119.68 142 119 142 C119 142.99 119 143.98 119 145 C118.34 145 117.68 145 117 145 C116.67 145.99 116.34 146.98 116 148 C115.01 148 114.02 148 113 148 C112.67 148.66 112.34 149.32 112 150 C110.35 150 108.7 150 107 150 C107 150.66 107 151.32 107 152 C105.02 152 103.04 152 101 152 C101 152.66 101 153.32 101 154 C98.03 154 95.06 154 92 154 C92 154.66 92 155.32 92 156 C78.8 156 65.6 156 52 156 C52 155.34 52 154.68 52 154 C49.03 154 46.06 154 43 154 C43 153.34 43 152.68 43 152 C40.69 152 38.38 152 36 152 C36 151.34 36 150.68 36 150 C34.68 150 33.36 150 32 150 C31.505 149.01 31.505 149.01 31 148 C30.01 148 29.02 148 28 148 C28 147.34 28 146.68 28 146 C27.01 145.67 26.02 145.34 25 145 C23.8125 142.4375 23.8125 142.4375 23 140 C21.35 140 19.7 140 18 140 C17.71125 139.195625 17.4225 138.39125 17.125 137.5625 C16.26737432 134.8673532 16.26737432 134.8673532 14 134 C14 133.34 14 132.68 14 132 C13.01 131.67 12.02 131.34 11 131 C11 130.34 11 129.68 11 129 C10.34 129 9.68 129 9 129 C9 127.02 9 125.04 9 123 C8.34 123 7.68 123 7 123 C7 121.35 7 119.7 7 118 C6.34 118 5.68 118 5 118 C5 115.69 5 113.38 5 111 C4.34 111 3.68 111 3 111 C3 106.71 3 102.42 3 98 C2.01 98 1.02 98 0 98 C0 65.66 0 33.32 0 0 Z " fill="#7A52D1" transform="translate(1049,29)"/>
<path d="M0 0 C1.29550781 0.00644531 2.59101562 0.01289062 3.92578125 0.01953125 C5.28906519 0.03624057 6.65234644 0.05317044 8.015625 0.0703125 C9.39452485 0.0803491 10.77343165 0.08947377 12.15234375 0.09765625 C15.52361382 0.12123157 18.89453136 0.1541398 22.265625 0.1953125 C22.265625 0.8553125 22.265625 1.5153125 22.265625 2.1953125 C24.575625 2.1953125 26.885625 2.1953125 29.265625 2.1953125 C29.265625 2.8553125 29.265625 3.5153125 29.265625 4.1953125 C29.925625 4.1953125 30.585625 4.1953125 31.265625 4.1953125 C31.265625 4.8553125 31.265625 5.5153125 31.265625 6.1953125 C32.44125 6.3190625 32.44125 6.3190625 33.640625 6.4453125 C36.265625 7.1953125 36.265625 7.1953125 37.578125 9.2578125 C37.805 9.8971875 38.031875 10.5365625 38.265625 11.1953125 C39.255625 11.1953125 40.245625 11.1953125 41.265625 11.1953125 C41.265625 12.8453125 41.265625 14.4953125 41.265625 16.1953125 C41.925625 16.1953125 42.585625 16.1953125 43.265625 16.1953125 C43.265625 17.5153125 43.265625 18.8353125 43.265625 20.1953125 C43.925625 20.1953125 44.585625 20.1953125 45.265625 20.1953125 C45.265625 21.8453125 45.265625 23.4953125 45.265625 25.1953125 C45.925625 25.1953125 46.585625 25.1953125 47.265625 25.1953125 C47.265625 28.4953125 47.265625 31.7953125 47.265625 35.1953125 C47.925625 35.1953125 48.585625 35.1953125 49.265625 35.1953125 C49.265625 63.5753125 49.265625 91.9553125 49.265625 121.1953125 C34.415625 121.1953125 19.565625 121.1953125 4.265625 121.1953125 C4.265625 97.1053125 4.265625 73.0153125 4.265625 48.1953125 C3.605625 47.8653125 2.945625 47.5353125 2.265625 47.1953125 C2.265625 45.8753125 2.265625 44.5553125 2.265625 43.1953125 C0.945625 43.1953125 -0.374375 43.1953125 -1.734375 43.1953125 C-1.734375 42.5353125 -1.734375 41.8753125 -1.734375 41.1953125 C-2.394375 41.1953125 -3.054375 41.1953125 -3.734375 41.1953125 C-3.734375 40.2053125 -3.734375 39.2153125 -3.734375 38.1953125 C-7.364375 38.1953125 -10.994375 38.1953125 -14.734375 38.1953125 C-15.064375 39.1853125 -15.394375 40.1753125 -15.734375 41.1953125 C-17.054375 41.1953125 -18.374375 41.1953125 -19.734375 41.1953125 C-19.734375 41.8553125 -19.734375 42.5153125 -19.734375 43.1953125 C-20.394375 43.1953125 -21.054375 43.1953125 -21.734375 43.1953125 C-21.734375 44.5153125 -21.734375 45.8353125 -21.734375 47.1953125 C-22.724375 47.6903125 -22.724375 47.6903125 -23.734375 48.1953125 C-23.693125 48.9790625 -23.651875 49.7628125 -23.609375 50.5703125 C-23.734375 53.1953125 -23.734375 53.1953125 -25.734375 55.1953125 C-26.02104975 58.02211117 -26.02104975 58.02211117 -25.94555664 61.37329102 C-25.94217789 62.67126114 -25.93879913 63.96923126 -25.93531799 65.30653381 C-25.92178491 66.72909605 -25.9081878 68.15165769 -25.89453125 69.57421875 C-25.88826311 71.0262767 -25.88302226 72.47833942 -25.87876892 73.93040466 C-25.86545218 77.75564378 -25.84100991 81.5807239 -25.81341553 85.40588379 C-25.77032716 91.53270046 -25.74063992 97.65956111 -25.7173748 103.78648186 C-25.70711332 105.93205955 -25.69006789 108.07751001 -25.67237854 110.22303772 C-25.66584763 111.51785568 -25.65931671 112.81267365 -25.65258789 114.14672852 C-25.64433487 115.29319351 -25.63608185 116.43965851 -25.62757874 117.62086487 C-25.734375 120.1953125 -25.734375 120.1953125 -26.734375 121.1953125 C-40.594375 121.1953125 -54.454375 121.1953125 -68.734375 121.1953125 C-68.734375 81.9253125 -68.734375 42.6553125 -68.734375 2.1953125 C-54.544375 2.1953125 -40.354375 2.1953125 -25.734375 2.1953125 C-25.239375 8.6303125 -25.239375 8.6303125 -24.734375 15.1953125 C-24.404375 14.5353125 -24.074375 13.8753125 -23.734375 13.1953125 C-23.074375 13.1953125 -22.414375 13.1953125 -21.734375 13.1953125 C-21.734375 12.5353125 -21.734375 11.8753125 -21.734375 11.1953125 C-21.074375 11.1953125 -20.414375 11.1953125 -19.734375 11.1953125 C-19.404375 10.2053125 -19.074375 9.2153125 -18.734375 8.1953125 C-18.074375 8.1953125 -17.414375 8.1953125 -16.734375 8.1953125 C-16.734375 7.5353125 -16.734375 6.8753125 -16.734375 6.1953125 C-16.074375 6.1953125 -15.414375 6.1953125 -14.734375 6.1953125 C-14.734375 5.5353125 -14.734375 4.8753125 -14.734375 4.1953125 C-13.414375 4.1953125 -12.094375 4.1953125 -10.734375 4.1953125 C-10.734375 3.5353125 -10.734375 2.8753125 -10.734375 2.1953125 C-7.14172667 -0.05203678 -4.18295427 -0.03669258 0 0 Z M-26.734375 16.1953125 C-25.734375 18.1953125 -25.734375 18.1953125 -25.734375 18.1953125 Z " fill="#7A52D1" transform="translate(921.734375,61.8046875)"/>
<path d="M0 0 C11.88 0 23.76 0 36 0 C36 0.66 36 1.32 36 2 C38.97 2 41.94 2 45 2 C45 2.66 45 3.32 45 4 C46.65 4 48.3 4 50 4 C50 4.66 50 5.32 50 6 C51.32 6 52.64 6 54 6 C54 6.66 54 7.32 54 8 C55.32 8 56.64 8 58 8 C58 8.99 58 9.98 58 11 C58.99 11 59.98 11 61 11 C61 11.66 61 12.32 61 13 C61.66 13 62.32 13 63 13 C63 13.66 63 14.32 63 15 C63.99 15.33 64.98 15.66 66 16 C68.1875 17.9375 68.1875 17.9375 70 20 C70 20.66 70 21.32 70 22 C70.66 22 71.32 22 72 22 C72 22.99 72 23.98 72 25 C72.66 25 73.32 25 74 25 C74 26.32 74 27.64 74 29 C75.485 29.495 75.485 29.495 77 30 C77.66 30.33 78.32 30.66 79 31 C79 32.32 79 33.64 79 35 C79.66 35 80.32 35 81 35 C81 38.3 81 41.6 81 45 C81.66 45 82.32 45 83 45 C83 49.29 83 53.58 83 58 C83.99 58 84.98 58 86 58 C86 60.31 86 62.62 86 65 C85.01 65 84.02 65 83 65 C83 69.29 83 73.58 83 78 C82.34 78 81.68 78 81 78 C81 80.31 81 82.62 81 85 C80.34 85 79.68 85 79 85 C79 86.65 79 88.3 79 90 C78.34 90 77.68 90 77 90 C77 91.32 77 92.64 77 94 C76.01 94 75.02 94 74 94 C74 95.65 74 97.3 74 99 C73.34 99 72.68 99 72 99 C72 99.66 72 100.32 72 101 C71.34 101 70.68 101 70 101 C70 101.66 70 102.32 70 103 C69.01 103 68.02 103 67 103 C67 103.66 67 104.32 67 105 C66.34 105 65.68 105 65 105 C65 105.66 65 106.32 65 107 C64.34 107 63.68 107 63 107 C63 107.66 63 108.32 63 109 C62.401875 109.061875 61.80375 109.12375 61.1875 109.1875 C58.75544324 109.8292145 58.75544324 109.8292145 57.5625 112.4375 C55.67300657 115.53626923 54.45329862 116.07350525 51 117 C49.68 117 48.36 117 47 117 C47 117.66 47 118.32 47 119 C45.68 119 44.36 119 43 119 C43 119.66 43 120.32 43 121 C40.03 121 37.06 121 34 121 C34 121.66 34 122.32 34 123 C23.77 123 13.54 123 3 123 C3 122.34 3 121.68 3 121 C0.03 121 -2.94 121 -6 121 C-6 120.34 -6 119.68 -6 119 C-7.32 119 -8.64 119 -10 119 C-10 118.34 -10 117.68 -10 117 C-11.65 117 -13.3 117 -15 117 C-15 116.34 -15 115.68 -15 115 C-16.32 115 -17.64 115 -19 115 C-20.02028865 113.68212715 -21.01971384 112.34789347 -22 111 C-24.09415804 110.20376178 -24.09415804 110.20376178 -26 110 C-26 109.01 -26 108.02 -26 107 C-27.485 106.505 -27.485 106.505 -29 106 C-29.66 105.67 -30.32 105.34 -31 105 C-31 104.34 -31 103.68 -31 103 C-31.66 103 -32.32 103 -33 103 C-33 101.68 -33 100.36 -33 99 C-33.66 99 -34.32 99 -35 99 C-35 98.01 -35 97.02 -35 96 C-35.66 96 -36.32 96 -37 96 C-37 94.68 -37 93.36 -37 92 C-37.66 92 -38.32 92 -39 92 C-39 91.34 -39 90.68 -39 90 C-39.99 90 -40.98 90 -42 90 C-42.309375 88.865625 -42.61875 87.73125 -42.9375 86.5625 C-43.62924531 83.21224901 -43.62924531 83.21224901 -45 82 C-45.04063832 80.33382885 -45.042721 78.66611905 -45 77 C-45.66 76.67 -46.32 76.34 -47 76 C-47 66.43 -47 56.86 -47 47 C-46.01 47 -45.02 47 -44 47 C-44.33 44.69 -44.66 42.38 -45 40 C-44.01 39.505 -44.01 39.505 -43 39 C-42.34227572 35.97065509 -42.34227572 35.97065509 -42 33 C-41.01 33 -40.02 33 -39 33 C-39 32.34 -39 31.68 -39 31 C-38.34 31 -37.68 31 -37 31 C-37 29.68 -37 28.36 -37 27 C-36.34 27 -35.68 27 -35 27 C-35 26.34 -35 25.68 -35 25 C-34.34 25 -33.68 25 -33 25 C-33 23.35 -33 21.7 -33 20 C-32.34 20 -31.68 20 -31 20 C-31 19.34 -31 18.68 -31 18 C-29.625 16.375 -29.625 16.375 -28 15 C-27.34 15 -26.68 15 -26 15 C-26 14.34 -26 13.68 -26 13 C-23.35261084 11.5393715 -22.10551666 11 -19 11 C-19 10.01 -19 9.02 -19 8 C-17.68 8 -16.36 8 -15 8 C-15 7.34 -15 6.68 -15 6 C-13.35 6 -11.7 6 -10 6 C-10 5.34 -10 4.68 -10 4 C-8.68 4 -7.36 4 -6 4 C-6 3.34 -6 2.68 -6 2 C-4.02 1.67 -2.04 1.34 0 1 C0 0.67 0 0.34 0 0 Z M14 36 C14 36.66 14 37.32 14 38 C12.02 38 10.04 38 8 38 C7.67 38.99 7.34 39.98 7 41 C6.34 41 5.68 41 5 41 C5 41.66 5 42.32 5 43 C4.01 43 3.02 43 2 43 C2 43.66 2 44.32 2 45 C1.34 45 0.68 45 0 45 C0 45.66 0 46.32 0 47 C-0.66 47 -1.32 47 -2 47 C-2 48.32 -2 49.64 -2 51 C-2.66 51 -3.32 51 -4 51 C-4 56.94 -4 62.88 -4 69 C-3.34 69 -2.68 69 -2 69 C-2 70.65 -2 72.3 -2 74 C-1.01 74 -0.02 74 1 74 C0.67 75.32 0.34 76.64 0 78 C0.804375 78.268125 1.60875 78.53625 2.4375 78.8125 C3.283125 79.204375 4.12875 79.59625 5 80 C5.33 80.99 5.66 81.98 6 83 C6.99 83 7.98 83 9 83 C9 83.66 9 84.32 9 85 C11.31 85 13.62 85 16 85 C16 85.66 16 86.32 16 87 C18.31 87 20.62 87 23 87 C23 86.34 23 85.68 23 85 C24.670625 85.061875 24.670625 85.061875 26.375 85.125 C30.04366025 85.41121859 30.04366025 85.41121859 32 83 C32 82.01 32 81.02 32 80 C32.7425 79.7525 33.485 79.505 34.25 79.25 C37.47641364 77.78344835 39.00299275 76.95852926 41 74 C41.33279443 70.64036095 41.2311279 67.36419502 41 64 C41.66 64 42.32 64 43 64 C43.20086443 60.28400809 43.1519437 59.22791555 41 56 C40.875 53.3125 40.875 53.3125 41 51 C40.01 51 39.02 51 38 51 C38.33 49.68 38.66 48.36 39 47 C38.34 47 37.68 47 37 47 C37 46.34 37 45.68 37 45 C34.525 44.01 34.525 44.01 32 43 C32 42.34 32 41.68 32 41 C30.92005135 39.25117962 30.92005135 39.25117962 29 38 C25.87450983 37.74951364 25.87450983 37.74951364 23 38 C23 37.34 23 36.68 23 36 C20.03 36 17.06 36 14 36 Z " fill="#7A52D1" transform="translate(754,62)"/>
<path d="M0 0 C11.88 0 23.76 0 36 0 C36 0.66 36 1.32 36 2 C38.97 2 41.94 2 45 2 C45 2.66 45 3.32 45 4 C47.31 4 49.62 4 52 4 C52 4.66 52 5.32 52 6 C53.32 6 54.64 6 56 6 C56 6.66 56 7.32 56 8 C56.66 8 57.32 8 58 8 C58 8.99 58 9.98 58 11 C59.65 11 61.3 11 63 11 C63 11.66 63 12.32 63 13 C63.66 13 64.32 13 65 13 C67.625 15.25 67.625 15.25 70 18 C70 19.32 70 20.64 70 22 C70.66 22 71.32 22 72 22 C72 23.65 72 25.3 72 27 C72.99 27 73.98 27 75 27 C75 28.65 75 30.3 75 32 C75.66 32.33 76.32 32.66 77 33 C77 62.04 77 91.08 77 121 C62.81 121 48.62 121 34 121 C33.505 117.04 33.505 117.04 33 113 C31.02 113.99 31.02 113.99 29 115 C29 115.66 29 116.32 29 117 C28.01 117 27.02 117 26 117 C25.67 117.66 25.34 118.32 25 119 C23.68 119 22.36 119 21 119 C21 119.66 21 120.32 21 121 C18.69 121 16.38 121 14 121 C14 121.66 14 122.32 14 123 C6.08 123 -1.84 123 -10 123 C-10 122.34 -10 121.68 -10 121 C-12.31 121 -14.62 121 -17 121 C-17 120.34 -17 119.68 -17 119 C-18.65 119 -20.3 119 -22 119 C-22.495 118.01 -22.495 118.01 -23 117 C-23.99 117 -24.98 117 -26 117 C-27.6875 115.625 -27.6875 115.625 -29 114 C-29 113.34 -29 112.68 -29 112 C-29.66 112 -30.32 112 -31 112 C-31 111.01 -31 110.02 -31 109 C-31.66 109 -32.32 109 -33 109 C-33 107.68 -33 106.36 -33 105 C-33.66 105 -34.32 105 -35 105 C-35 103.68 -35 102.36 -35 101 C-35.99 101 -36.98 101 -38 101 C-38 98.36 -38 95.72 -38 93 C-38.66 92.67 -39.32 92.34 -40 92 C-40 88.04 -40 84.08 -40 80 C-39.01 79.505 -39.01 79.505 -38 79 C-38 76.69 -38 74.38 -38 72 C-36.515 71.505 -36.515 71.505 -35 71 C-35 69.35 -35 67.7 -35 66 C-34.34 66 -33.68 66 -33 66 C-33 64.68 -33 63.36 -33 62 C-32.34 62 -31.68 62 -31 62 C-31 61.34 -31 60.68 -31 60 C-30.01 60 -29.02 60 -28 60 C-28 59.34 -28 58.68 -28 58 C-27.34 58 -26.68 58 -26 58 C-26 57.34 -26 56.68 -26 56 C-24.68 56 -23.36 56 -22 56 C-22 55.34 -22 54.68 -22 54 C-21.0409375 53.814375 -21.0409375 53.814375 -20.0625 53.625 C-19.381875 53.41875 -18.70125 53.2125 -18 53 C-17.67 52.34 -17.34 51.68 -17 51 C-12.81720564 48.74712017 -8.8205563 48.75972779 -4.1875 48.875 C-3.14819336 48.88853516 -3.14819336 48.88853516 -2.08789062 48.90234375 C-0.39177605 48.92573843 1.30415871 48.96160359 3 49 C3 48.34 3 47.68 3 47 C4.64574566 46.97311849 6.29161413 46.95365877 7.9375 46.9375 C8.85402344 46.92589844 9.77054687 46.91429687 10.71484375 46.90234375 C13 47 13 47 14 48 C16.52596259 48.23653523 19.03107207 48.42173692 21.5625 48.5625 C22.27341797 48.60568359 22.98433594 48.64886719 23.71679688 48.69335938 C25.47761912 48.79971777 27.2387832 48.90038846 29 49 C29 49.66 29 50.32 29 51 C30.65 51 32.3 51 34 51 C34 49.02 34 47.04 34 45 C33.34 45 32.68 45 32 45 C32 43.68 32 42.36 32 41 C30.515 40.505 30.515 40.505 29 40 C29 39.34 29 38.68 29 38 C28.34 38 27.68 38 27 38 C27 37.34 27 36.68 27 36 C25.02 36 23.04 36 21 36 C21 35.34 21 34.68 21 34 C14.07 34 7.14 34 0 34 C0 34.66 0 35.32 0 36 C-2.64 36 -5.28 36 -8 36 C-8 36.66 -8 37.32 -8 38 C-10.31 38 -12.62 38 -15 38 C-15.33 38.99 -15.66 39.98 -16 41 C-17.98 41 -19.96 41 -22 41 C-22.33 38.03 -22.66 35.06 -23 32 C-23.33 32 -23.66 32 -24 32 C-24 29.69 -24 27.38 -24 25 C-24.66 25 -25.32 25 -26 25 C-26 22.69 -26 20.38 -26 18 C-26.99 18 -27.98 18 -29 18 C-29 15.03 -29 12.06 -29 9 C-28.01 8.67 -27.02 8.34 -26 8 C-26 7.34 -26 6.68 -26 6 C-20.51324804 4.13216954 -15.77807024 3.7641604 -10 4 C-10 3.34 -10 2.68 -10 2 C-6.7 1.67 -3.4 1.34 0 1 C0 0.67 0 0.34 0 0 Z M18 71 C16.48530552 71.23192865 14.96245438 71.41215238 13.4375 71.5625 C12.61121094 71.64628906 11.78492188 71.73007813 10.93359375 71.81640625 C9.97646484 71.90728516 9.97646484 71.90728516 9 72 C9 72.66 9 73.32 9 74 C8.34 74 7.68 74 7 74 C7 74.66 7 75.32 7 76 C6.34 76 5.68 76 5 76 C5 76.66 5 77.32 5 78 C4.34 78 3.68 78 3 78 C2.67 80.97 2.34 83.94 2 87 C2.99 87 3.98 87 5 87 C5 88.32 5 89.64 5 91 C5.66 91 6.32 91 7 91 C7 91.66 7 92.32 7 93 C11.1196377 94.29243536 14.66831683 95.26252625 19 95 C19 94.34 19 93.68 19 93 C20.98 93 22.96 93 25 93 C25 92.34 25 91.68 25 91 C26.65 91 28.3 91 30 91 C30 90.34 30 89.68 30 89 C30.66 89 31.32 89 32 89 C32 87.68 32 86.36 32 85 C32.66 85 33.32 85 34 85 C34 82.69 34 80.38 34 78 C34.66 78 35.32 78 36 78 C36 76.68 36 75.36 36 74 C35.34 74 34.68 74 34 74 C34 73.34 34 72.68 34 72 C31.03 72 28.06 72 25 72 C25 71.34 25 70.68 25 70 C21.19378955 69.56152641 21.19378955 69.56152641 18 71 Z " fill="#7A52D1" transform="translate(495,62)"/>
<path d="M0 0 C1.32 0 2.64 0 4 0 C4 1.65 4 3.3 4 5 C3.34 5 2.68 5 2 5 C2 6.32 2 7.64 2 9 C1.01 9 0.02 9 -1 9 C-1.33 10.98 -1.66 12.96 -2 15 C-3.32 15.33 -4.64 15.66 -6 16 C-6.33 17.98 -6.66 19.96 -7 22 C-7.99 22 -8.98 22 -10 22 C-10 22.99 -10 23.98 -10 25 C-10.66 25 -11.32 25 -12 25 C-12 26.32 -12 27.64 -12 29 C-12.66 29 -13.32 29 -14 29 C-14 29.99 -14 30.98 -14 32 C-14.66 32 -15.32 32 -16 32 C-16 33.32 -16 34.64 -16 36 C-16.99 36.99 -16.99 36.99 -18 38 C-18.99 38 -19.98 38 -21 38 C-21 39.65 -21 41.3 -21 43 C-21.66 43 -22.32 43 -23 43 C-23 43.66 -23 44.32 -23 45 C-23.66 45 -24.32 45 -25 45 C-25 46.32 -25 47.64 -25 49 C-25.99 49 -26.98 49 -28 49 C-28 49.66 -28 50.32 -28 51 C-28.66 51 -29.32 51 -30 51 C-29.731875 51.53625 -29.46375 52.0725 -29.1875 52.625 C-28.95477689 55.57282601 -29.5799856 56.04811495 -31.4375 58.25 C-32.283125 59.1575 -33.12875 60.065 -34 61 C-33.175 61.598125 -32.35 62.19625 -31.5 62.8125 C-30.675 63.534375 -29.85 64.25625 -29 65 C-29 65.99 -29 66.98 -29 68 C-27.15811388 70.05270463 -27.15811388 70.05270463 -25 71 C-25 72.65 -25 74.3 -25 76 C-24.34 76 -23.68 76 -23 76 C-23 76.66 -23 77.32 -23 78 C-22.34 78 -21.68 78 -21 78 C-21 79.65 -21 81.3 -21 83 C-19.515 83.495 -19.515 83.495 -18 84 C-17.34 84.33 -16.68 84.66 -16 85 C-16 86.32 -16 87.64 -16 89 C-15.34 89 -14.68 89 -14 89 C-14 89.66 -14 90.32 -14 91 C-13.34 91 -12.68 91 -12 91 C-11.01 94.465 -11.01 94.465 -10 98 C-9.01 98 -8.02 98 -7 98 C-7.33 99.65 -7.66 101.3 -8 103 C-6.02 103.495 -6.02 103.495 -4 104 C-3.896875 104.61875 -3.79375 105.2375 -3.6875 105.875 C-3.12474627 108.36526484 -3.12474627 108.36526484 0 110 C0.6875 113.125 0.6875 113.125 1 116 C1.99 116 2.98 116 4 116 C4 117.65 4 119.3 4 121 C-11.51 121 -27.02 121 -43 121 C-43.66 119.02 -44.32 117.04 -45 115 C-46.485 114.505 -46.485 114.505 -48 114 C-48 112.68 -48 111.36 -48 110 C-49.485 109.505 -49.485 109.505 -51 109 C-51.33 107.02 -51.66 105.04 -52 103 C-52.99 103 -53.98 103 -55 103 C-55.268125 102.05125 -55.53625 101.1025 -55.8125 100.125 C-56.74986588 96.74732727 -56.74986588 96.74732727 -60 95 C-60.495 96.98 -60.495 96.98 -61 99 C-61.99 99 -62.98 99 -64 99 C-64 99.66 -64 100.32 -64 101 C-64.66 101 -65.32 101 -66 101 C-66 102.32 -66 103.64 -66 105 C-66.66 105 -67.32 105 -68 105 C-68 105.66 -68 106.32 -68 107 C-68.66 107 -69.32 107 -70 107 C-70 108.65 -70 110.3 -70 112 C-70.66 112 -71.32 112 -72 112 C-72 113.65 -72 115.3 -72 117 C-72.66 117 -73.32 117 -74 117 C-74 117.66 -74 118.32 -74 119 C-74.99 119 -75.98 119 -77 119 C-77 119.66 -77 120.32 -77 121 C-91.52 121 -106.04 121 -121 121 C-121.495 118.525 -121.495 118.525 -122 116 C-121.01 116 -120.02 116 -119 116 C-119 114.68 -119 113.36 -119 112 C-118.34 112 -117.68 112 -117 112 C-117 111.01 -117 110.02 -117 109 C-116.34 109 -115.68 109 -115 109 C-115 107.68 -115 106.36 -115 105 C-114.01 105 -113.02 105 -112 105 C-111.67 102.69 -111.34 100.38 -111 98 C-110.01 98 -109.02 98 -108 98 C-107.34 95.69 -106.68 93.38 -106 91 C-105.01 91 -104.02 91 -103 91 C-103 90.34 -103 89.68 -103 89 C-102.34 89 -101.68 89 -101 89 C-101 87.68 -101 86.36 -101 85 C-100.34 85 -99.68 85 -99 85 C-99 84.34 -99 83.68 -99 83 C-98.34 83 -97.68 83 -97 83 C-97 81.35 -97 79.7 -97 78 C-96.34 78 -95.68 78 -95 78 C-95 77.34 -95 76.68 -95 76 C-94.01 75.505 -94.01 75.505 -93 75 C-93 73.68 -93 72.36 -93 71 C-92.34 71 -91.68 71 -91 71 C-90.67 70.34 -90.34 69.68 -90 69 C-89.34 69 -88.68 69 -88 69 C-88 67.35 -88 65.7 -88 64 C-87.01 64 -86.02 64 -85 64 C-84.7497843 61.08365871 -84.7497843 61.08365871 -85 58 C-85.99 57.34 -86.98 56.68 -88 56 C-88.1875 53.375 -88.1875 53.375 -88 51 C-88.66 51 -89.32 51 -90 51 C-90 50.34 -90 49.68 -90 49 C-90.99 49 -91.98 49 -93 49 C-93 48.01 -93 47.02 -93 46 C-93.66 45.67 -94.32 45.34 -95 45 C-95 44.34 -95 43.68 -95 43 C-95.66 43 -96.32 43 -97 43 C-97 41.35 -97 39.7 -97 38 C-97.66 38 -98.32 38 -99 38 C-99 37.34 -99 36.68 -99 36 C-99.66 36 -100.32 36 -101 36 C-101 34.68 -101 33.36 -101 32 C-101.66 32 -102.32 32 -103 32 C-103 31.01 -103 30.02 -103 29 C-103.99 29 -104.98 29 -106 29 C-107.4606285 26.35261084 -108 25.10551666 -108 22 C-108.99 22 -109.98 22 -111 22 C-111.33 20.02 -111.66 18.04 -112 16 C-112.99 16 -113.98 16 -115 16 C-115.66 13.69 -116.32 11.38 -117 9 C-117.66 9 -118.32 9 -119 9 C-119 8.34 -119 7.68 -119 7 C-119.99 7 -120.98 7 -122 7 C-122 5.35 -122 3.7 -122 2 C-106.16 2 -90.32 2 -74 2 C-74 2.66 -74 3.32 -74 4 C-73.34 4 -72.68 4 -72 4 C-72 4.66 -72 5.32 -72 6 C-71.34 6 -70.68 6 -70 6 C-70 7.65 -70 9.3 -70 11 C-69.34 11 -68.68 11 -68 11 C-66.5393715 13.64738916 -66 14.89448334 -66 18 C-65.01 18 -64.02 18 -63 18 C-63 18.99 -63 19.98 -63 21 C-62.01 21.66 -61.02 22.32 -60 23 C-60.33 24.32 -60.66 25.64 -61 27 C-60.01 27 -59.02 27 -58 27 C-57.67 25.35 -57.34 23.7 -57 22 C-56.01 22 -55.02 22 -54 22 C-53.814375 20.576875 -53.814375 20.576875 -53.625 19.125 C-53 16 -53 16 -51 14 C-50.67 13.01 -50.34 12.02 -50 11 C-49.01 11 -48.02 11 -47 11 C-47 10.01 -47 9.02 -47 8 C-46.34 8 -45.68 8 -45 8 C-45 6.68 -45 5.36 -45 4 C-44.34 4 -43.68 4 -43 4 C-43 3.34 -43 2.68 -43 2 C-41.73293213 1.97494385 -40.46586426 1.9498877 -39.16040039 1.92407227 C-34.47702221 1.83018004 -29.7937987 1.72991565 -25.1105957 1.62768555 C-23.08035896 1.58426759 -21.05008408 1.54259774 -19.01977539 1.50268555 C-16.10811849 1.44514854 -13.19665486 1.38140722 -10.28515625 1.31640625 C-8.91485008 1.29133751 -8.91485008 1.29133751 -7.51686096 1.26576233 C-3.43210684 1.5769315 -3.43210684 1.5769315 0 0 Z " fill="#7A52D1" transform="translate(704,62)"/>
<path d="M0 0 C14.85 0 29.7 0 45 0 C45 50.82 45 101.64 45 154 C30.48 154 15.96 154 1 154 C0 153 0 153 -0.12304783 150.48749447 C-0.12212604 149.36014165 -0.12120424 148.23278883 -0.12025452 147.0712738 C-0.12162918 145.78253357 -0.12300385 144.49379333 -0.12442017 143.16600037 C-0.12088055 141.72451759 -0.11724573 140.28303505 -0.11352539 138.84155273 C-0.11324353 137.33403526 -0.11340123 135.82651764 -0.1139679 134.31900024 C-0.11425591 130.21380656 -0.10835861 126.10864185 -0.10139394 122.00345492 C-0.09516099 117.7179674 -0.09455665 113.43247928 -0.09336853 109.14698792 C-0.09025504 101.02613348 -0.08204141 92.90529244 -0.07201904 84.78444391 C-0.06085845 75.54155126 -0.05534759 66.29865798 -0.05032361 57.05576026 C-0.03985881 38.03716436 -0.02151312 19.01858683 0 0 Z " fill="#7A52D1" transform="translate(1214,29)"/>
<path d="M0 0 C6.27 0 12.54 0 19 0 C19.0745659 6.65280755 19.12879834 13.30536784 19.16479492 19.95849609 C19.17981295 22.21830487 19.20023345 24.47808484 19.22631836 26.73779297 C19.26300995 29.99974714 19.27979675 33.26131347 19.29296875 36.5234375 C19.30845261 37.52176605 19.32393646 38.5200946 19.33988953 39.54867554 C19.3414147 46.01195082 18.66602732 52.03679907 16 58 C15.01 58.495 15.01 58.495 14 59 C13.46120421 60.52854022 12.96871997 62.07353691 12.5 63.625 C10.41316501 69.15827459 7.40234153 71.41748181 2.4375 74.4296875 C-0.07693154 75.91154072 -0.07693154 75.91154072 -2 78.12109375 C-4.36608217 80.34391704 -5.8259283 80.69880908 -9 81.1875 C-9.845625 81.32542969 -10.69125 81.46335937 -11.5625 81.60546875 C-12.366875 81.73566406 -13.17125 81.86585938 -14 82 C-14.62737061 82.16822266 -15.25474121 82.33644531 -15.90112305 82.50976562 C-27.8040279 85.28992533 -40.66138183 82.796488 -52 79 C-52 78.01 -52 77.02 -52 76 C-52.70125 75.835 -53.4025 75.67 -54.125 75.5 C-58.37057662 73.28491655 -60.34836679 69.90063928 -63 66 C-63.54269531 65.2471875 -64.08539063 64.494375 -64.64453125 63.71875 C-70.46066106 55.45446823 -71.29645099 48.74953808 -71.1953125 38.81640625 C-71.1924826 37.76090073 -71.18965271 36.7053952 -71.18673706 35.61790466 C-71.17559415 32.26598496 -71.15050024 28.91433816 -71.125 25.5625 C-71.1149626 23.28190492 -71.10583808 21.00130562 -71.09765625 18.72070312 C-71.07567407 13.14703119 -71.04118473 7.57356178 -71 2 C-65.39 2 -59.78 2 -54 2 C-54.00112793 3.38711182 -54.00225586 4.77422363 -54.00341797 6.20336914 C-53.99973673 11.36800668 -53.95685255 16.53171433 -53.90234375 21.69604492 C-53.88421687 23.9277547 -53.87660921 26.15957643 -53.87988281 28.39135742 C-53.88274929 31.60683251 -53.847335 34.8200014 -53.8046875 38.03515625 C-53.81378143 39.02709488 -53.82287537 40.01903351 -53.83224487 41.04103088 C-53.68669836 48.03621483 -51.97068733 51.20883469 -47 56 C-46.38125 56.9075 -45.7625 57.815 -45.125 58.75 C-40.64894255 63.48935495 -35.60607781 64.1462272 -29.32958984 64.4543457 C-21.05406794 64.63602246 -14.30342247 63.16977407 -7 59 C-4.8614515 56.8614515 -4.57344937 55.86724686 -4 53 C-3.34 53 -2.68 53 -2 53 C-0.99373701 47.07343327 -0.78703783 41.2582447 -0.68359375 35.25390625 C-0.6524221 33.7372361 -0.6524221 33.7372361 -0.62062073 32.18992615 C-0.55557951 28.98084887 -0.49645273 25.77169432 -0.4375 22.5625 C-0.39427152 20.37824743 -0.35065589 18.19400248 -0.30664062 16.00976562 C-0.19994505 10.67325494 -0.09855136 5.33666705 0 0 Z " fill="#F9F7FD" transform="translate(132,63)"/>
<path d="M0 0 C5.94 0 11.88 0 18 0 C18.07409532 5.92648574 18.12857616 11.85270253 18.16479492 17.77954102 C18.17989179 19.79619034 18.20037115 21.81280679 18.22631836 23.8293457 C18.26266211 26.72615671 18.2797172 29.62253406 18.29296875 32.51953125 C18.30845261 33.42274612 18.32393646 34.325961 18.33988953 35.25654602 C18.34011612 36.09719101 18.34034271 36.937836 18.34057617 37.80395508 C18.34723801 38.54341873 18.35389984 39.28288239 18.36076355 40.04475403 C17.89271642 42.58144952 17.01247185 43.42954693 15 45 C11.37296974 46.20901009 7.75982637 46.78660475 4 46 C1.8972168 44.57202148 1.8972168 44.57202148 0 42 C-0.56225615 38.80548886 -0.4649889 35.65666834 -0.390625 32.421875 C-0.38496521 31.4953009 -0.37930542 30.56872681 -0.37347412 29.61407471 C-0.35110921 26.65885438 -0.30091262 23.70485295 -0.25 20.75 C-0.22993515 18.7448092 -0.21168435 16.73959936 -0.1953125 14.734375 C-0.151244 9.82244806 -0.08221555 4.91143058 0 0 Z " fill="#F7F4FC" transform="translate(97,65)"/>
<path d="M0 0 C0.804375 -0.00128906 1.60875 -0.00257812 2.4375 -0.00390625 C3.283125 -0.00003906 4.12875 0.00382812 5 0.0078125 C6.2684375 0.00201172 6.2684375 0.00201172 7.5625 -0.00390625 C8.366875 -0.00261719 9.17125 -0.00132813 10 0 C10.7425 0.00112793 11.485 0.00225586 12.25 0.00341797 C14 0.1328125 14 0.1328125 15 1.1328125 C15.1169901 2.54833614 15.1672098 3.96947271 15.18945312 5.38964844 C15.20617065 6.29438904 15.22288818 7.19912964 15.2401123 8.13128662 C15.25368774 9.11663391 15.26726318 10.1019812 15.28125 11.1171875 C15.30886414 12.62880463 15.30886414 12.62880463 15.33703613 14.17095947 C15.39598918 17.40818244 15.44868197 20.64546003 15.5 23.8828125 C15.56773105 28.12771384 15.64150073 32.37245 15.71875 36.6171875 C15.73232544 37.59443787 15.74590088 38.57168823 15.7598877 39.57855225 C15.77660522 40.49590149 15.79332275 41.41325073 15.81054688 42.35839844 C15.82933899 43.56299713 15.82933899 43.56299713 15.84851074 44.79193115 C16.01136456 47.30842296 16.45462925 49.67318904 17 52.1328125 C14.9790154 50.48036787 14.07939974 49.60491571 13.63923645 46.98774719 C13.64589828 46.15945908 13.65256012 45.33117096 13.65942383 44.4777832 C13.65965042 43.53703445 13.65987701 42.59628571 13.66011047 41.62702942 C13.67559433 40.61444565 13.69107819 39.60186188 13.70703125 38.55859375 C13.71127609 37.51962448 13.71552094 36.48065521 13.71989441 35.41020203 C13.73670151 32.08830974 13.77435804 28.76702175 13.8125 25.4453125 C13.82754418 23.19467021 13.84123305 20.94401843 13.85351562 18.69335938 C13.8866118 13.17294386 13.93840861 7.65298067 14 2.1328125 C8.39 2.1328125 2.78 2.1328125 -3 2.1328125 C-3 17.6428125 -3 33.1528125 -3 49.1328125 C-4.82578878 45.48123494 -5.24992642 44.44023885 -5.24291992 40.65551758 C-5.24599655 39.77813431 -5.24907318 38.90075104 -5.25224304 37.9967804 C-5.24505753 37.0581163 -5.23787201 36.11945221 -5.23046875 35.15234375 C-5.23001053 34.18374924 -5.22955231 33.21515472 -5.2290802 32.21720886 C-5.22606294 30.17384615 -5.2181924 28.13048563 -5.20581055 26.0871582 C-5.18750806 22.94669527 -5.18530123 19.80652642 -5.18554688 16.66601562 C-5.18063332 14.6822891 -5.17480571 12.69856458 -5.16796875 10.71484375 C-5.16685593 9.77010696 -5.1657431 8.82537018 -5.16459656 7.852005 C-5.15821671 6.98407822 -5.15183685 6.11615143 -5.14526367 5.22192383 C-5.14145187 4.45455399 -5.13764008 3.68718414 -5.13371277 2.89656067 C-4.87419227 -0.52666366 -2.96228642 0.0045 0 0 Z " fill="#B29AE4" transform="translate(64,62.8671875)"/>
<path d="M0 0 C6.875 1.875 6.875 1.875 8 3 C13.87994776 4.75366863 19.34404434 5.18681818 25.4375 5.1875 C26.50303101 5.18858765 26.50303101 5.18858765 27.59008789 5.18969727 C31.42241335 5.20326025 31.42241335 5.20326025 35 4 C36.43487228 3.84777386 37.8731569 3.72660069 39.3125 3.625 C43.26518171 3.24371238 45.66874913 2.22083391 49 0 C49.66 0.33 50.32 0.66 51 1 C48.59488604 3.88613675 46.72909796 4.51849507 43.0625 5.125 C39.55615076 5.71084299 39.55615076 5.71084299 36.09667969 6.51196289 C24.18957342 9.28354014 11.34199818 6.79761972 0 3 C0 2.01 0 1.02 0 0 Z " fill="#C6B4EB" transform="translate(80,139)"/>
<path d="M0 0 C4 2 4 2 5.875 3.0625 C11.54639056 5.56458407 17.80469254 5.12192319 23.875 5.0625 C24.75414063 5.05798828 25.63328125 5.05347656 26.5390625 5.04882812 C28.69273803 5.03712337 30.84637817 5.01919069 33 5 C26.28998588 9.47334275 17.13914745 8.94590105 9.3046875 7.50390625 C4.93551234 6.0336705 2.48304142 3.82802219 0 0 Z " fill="#9A7BDB" transform="translate(85,120)"/>
<path d="M0 0 C1 3 1 3 0.3125 5.5625 C-1.16086774 8.29875437 -2.13522966 8.94958421 -5 10 C-5 5.77471908 -4.74375671 4.95481492 -2 2 C-1.34 2 -0.68 2 0 2 C0 1.34 0 0.68 0 0 Z " fill="#5F49DE" transform="translate(24,17)"/>
<path d="M0 0 C0.99 0 1.98 0 3 0 C5.25 2.25 5.25 2.25 7 5 C6.75 7.3125 6.75 7.3125 6 9 C6 8.34 6 7.68 6 7 C5.34 7 4.68 7 4 7 C4 6.34 4 5.68 4 5 C3.34 5 2.68 5 2 5 C1.34 3.35 0.68 1.7 0 0 Z " fill="#5947DF" transform="translate(18,172)"/>
<path d="M0 0 C4 2 8 4 12 6 C10.1953125 6.609375 10.1953125 6.609375 8 7 C4.38765096 4.97708454 2.3075208 3.46128121 0 0 Z " fill="#B49EE5" transform="translate(85,120)"/>
<path d="M0 0 C0.66 0.33 1.32 0.66 2 1 C2 3 2 3 0.625 4.625 C-1 6 -1 6 -3 6 C-3.33 6.66 -3.66 7.32 -4 8 C-4.33 7.01 -4.66 6.02 -5 5 C-3.35 3.35 -1.7 1.7 0 0 Z " fill="#6F51C4" transform="translate(193,171)"/>
<path d="" fill="#7A52D1" transform="translate(0,0)"/>
<path d="" fill="#7A52D1" transform="translate(0,0)"/>
</svg>
